<?xml version="1.0" encoding="UTF-8" standalone="no"?>
<svg
   xmlns:dc="http://purl.org/dc/elements/1.1/"
   xmlns:cc="http://creativecommons.org/ns#"
   xmlns:rdf="http://www.w3.org/1999/02/22-rdf-syntax-ns#"
   xmlns:svg="http://www.w3.org/2000/svg"
   xmlns="http://www.w3.org/2000/svg"
   xmlns:sodipodi="http://sodipodi.sourceforge.net/DTD/sodipodi-0.dtd"
   xmlns:inkscape="http://www.inkscape.org/namespaces/inkscape"
   height="950"
   width="1220"
   version="1.1"
   id="svg294"
   sodipodi:docname="Country-7.svg"
   onload="setData(evt);">
  <metadata
     id="metadata298">
    <rdf:RDF>
      <cc:Work
         rdf:about="">
        <dc:format>image/svg+xml</dc:format>
        <dc:type
           rdf:resource="http://purl.org/dc/dcmitype/StillImage" />
        <dc:title />
      </cc:Work>
    </rdf:RDF>
  </metadata>
  <sodipodi:namedview
     pagecolor="#ffffff"
     bordercolor="#666666"
     borderopacity="1"
     objecttolerance="10"
     gridtolerance="10"
     guidetolerance="10"
     inkscape:pageopacity="0"
     inkscape:pageshadow="2"
     inkscape:window-width="1299"
     inkscape:window-height="713"
     id="namedview296"
     showgrid="false"
     inkscape:zoom="0.57201502"
     inkscape:cx="630.22821"
     inkscape:cy="453.47299"
     inkscape:window-x="67"
     inkscape:window-y="27"
     inkscape:window-maximized="1"
     inkscape:current-layer="svg294"
     showguides="false"
     fit-margin-top="0"
     fit-margin-left="0"
     fit-margin-right="0"
     fit-margin-bottom="0" />
  <defs
     id="defs70">
     <script type="text/javascript">
			<![CDATA[
<!-- COMMON JAVASCRIPT CODE -->
<!-- COUNTRY SPECIFIC JAVASCRIPT CODE -->
			//]]>
		</script>
    <clipPath
       id="clipPath379"
       clipPathUnits="userSpaceOnUse">
      <path
         inkscape:connector-curvature="0"
         id="path377"
         d="M 0,300 H 600 V 0 H 0 Z" />
    </clipPath>
  </defs>
  <text
     font-size="46px"
     font-style="normal"
     font-weight="bold"
     text-align="center"
     x="610"
     y="61"
     id="text74"
     style="font-style:normal;font-weight:bold;font-size:46px;font-family:'Advent Pro';text-align:center;text-anchor:middle;fill:#0060ae"><!-- COUNTRY NAME --></text>
  <text
     font-size="28px"
     font-style="normal"
     font-weight="bold"
     text-align="center"
     x="610"
     y="109"
     id="title"
     style="font-style:normal;font-weight:bold;font-size:28px;font-family:'Advent Pro';text-align:center;text-anchor:middle;fill:#0060ae">Title</text>
  <text
     font-size="10px"
     font-style="normal"
     font-weight="normal"
     text-align="center"
     transform="rotate(-90)"
     x="-20"
     y="1178.3564"
     id="text78"
     style="font-style:normal;font-weight:normal;font-size:10px;font-family:'Advent Pro';text-align:center;text-anchor:end;fill:#0060ae">© 2018 @EuropeElects</text>
  <g
     id="g368" transform="translate(-345,100)">
    <g
       inkscape:label="Laag 1"
       id="layer1"
       transform="matrix(2.4944879,0,0,2.4944882,1052.8398,-436.06004)">
      <g
         id="g369"
         transform="matrix(0.35277777,0,0,-0.35277777,29.380882,232.88943)">
        <path
           d="m 0,0 h -425.677 l 97.138,129.395 H 97.138 Z"
           style="fill:#0060ae;fill-opacity:1;fill-rule:nonzero;stroke:none"
           id="path371"
           inkscape:connector-curvature="0" />
      </g>
      <g
         transform="matrix(0.35277777,0,0,-0.35277777,-142.11907,262.98215)"
         id="g373">
        <g
           id="g375"
           clip-path="url(#clipPath379)">
          <g
             id="g381"
             transform="translate(92.7598,157.9404)">
            <path
               d="m 0,0 c 4.968,3.662 4.997,3.674 2.582,9.229 -5.319,12.234 -10.673,24.454 -16.01,36.68 -0.481,1.1 -0.945,2.209 -1.683,3.938 1.26,-0.671 2.004,-1.033 2.715,-1.449 12.847,-7.534 25.707,-15.049 38.515,-22.65 1.445,-0.857 2.283,-0.771 3.539,0.355 10.98,9.838 22.03,19.598 33.073,29.365 0.575,0.508 1,1.311 1.974,1.289 0.521,-0.882 0.18,-1.742 -0.007,-2.587 C 61.565,39.956 58.447,25.739 55.258,11.537 54.849,9.715 55.118,8.678 56.9,7.65 69.732,0.25 82.483,-7.291 95.257,-14.791 c 0.682,-0.401 1.347,-0.834 2.596,-1.612 -5.581,-0.55 -10.544,-1.038 -15.509,-1.528 -10.69,-1.056 -21.374,-2.158 -32.073,-3.126 -1.811,-0.164 -2.396,-0.901 -2.758,-2.587 -3.109,-14.47 -6.316,-28.919 -9.498,-43.374 -0.184,-0.835 -0.416,-1.659 -0.768,-3.049 -1.196,2.702 -2.182,4.901 -3.145,7.109 -5.272,12.077 -10.569,24.144 -15.776,36.249 -0.777,1.808 -1.596,2.859 -3.742,2.133 -1.22,-0.413 -2.607,0.035 -3.845,-0.505 -1.771,-0.121 -3.547,-0.199 -5.313,-0.369 -12.574,-1.21 -25.148,-2.438 -37.721,-3.66 -0.015,0.121 -0.025,0.243 -0.031,0.365 2.26,1.965 4.541,3.905 6.775,5.898 C -17.025,-15.241 -8.516,-7.617 0,0"
               style="fill:#fecc0b;fill-opacity:1;fill-rule:nonzero;stroke:none"
               id="path383"
               inkscape:connector-curvature="0" />
          </g>
          <g
             id="g385"
             transform="translate(60.4648,128.8301)">
            <path
               d="m 0,0 c 12.573,1.222 25.146,2.451 37.721,3.66 1.766,0.17 3.542,0.249 5.313,0.369 1.709,-23.318 -13.172,-42.651 -36.176,-46.875 -5.408,-0.993 -10.849,-0.942 -16.226,0.422 0.474,0.671 0.774,1.402 0.941,2.217 2.062,10.063 4.213,20.109 6.172,30.192 0.576,2.963 1.718,5.872 1.338,8.988 l -0.114,0.463 -0.048,-0.023 c 0.377,-0.043 0.504,0.226 0.626,0.501 l 0.24,-0.03 z"
               style="fill:#253b7b;fill-opacity:1;fill-rule:nonzero;stroke:none"
               id="path387"
               inkscape:connector-curvature="0" />
          </g>
          <g
             id="g389"
             transform="translate(60.4648,128.8301)">
            <path
               d="m 0,0 -0.213,-0.116 c 0,0 -0.24,0.03 -0.24,0.031 -0.208,-0.167 -0.417,-0.335 -0.626,-0.502 l 0.048,0.023 c -0.839,0.198 -1.595,-0.138 -2.368,-0.368 -10.568,-3.132 -21.124,-6.301 -31.71,-9.366 -2.305,-0.668 -4.521,-1.867 -7.051,-1.56 -2.09,8.395 -2.307,16.794 0.532,25.039 5.662,16.446 17.22,26.232 34.195,29.701 0.783,0.16 1.621,0.051 2.432,0.067 0.217,-2.659 0.364,-5.327 0.663,-7.978 C -3.443,27.02 -2.56,19.066 -1.528,11.133 -1.062,7.541 -1.033,3.883 -0.031,0.366 -0.025,0.243 -0.015,0.122 0,0"
               style="fill:#4290c0;fill-opacity:1;fill-rule:nonzero;stroke:none"
               id="path391"
               inkscape:connector-curvature="0" />
          </g>
          <g
             id="g393"
             transform="translate(60.4336,129.1958)">
            <path
               d="m 0,0 c -1.002,3.518 -1.03,7.175 -1.497,10.767 -1.031,7.934 -1.915,15.887 -2.81,23.838 -0.298,2.651 -0.446,5.319 -0.663,7.978 3.015,0.994 6.097,0.591 9.133,0.285 C 15.327,41.742 24.53,36.628 32.327,28.746 23.811,21.127 15.301,13.504 6.775,5.897 4.541,3.904 2.26,1.964 0,0"
               style="fill:#85b1d9;fill-opacity:1;fill-rule:nonzero;stroke:none"
               id="path395"
               inkscape:connector-curvature="0" />
          </g>
          <g
             id="g397"
             transform="translate(18.3047,116.9722)">
            <path
               d="m 0,0 c 2.53,-0.307 4.746,0.892 7.051,1.56 10.586,3.065 21.142,6.233 31.71,9.366 0.773,0.23 1.529,0.566 2.368,0.367 0.038,-0.154 0.076,-0.308 0.114,-0.463 -1.68,-2.088 -3.372,-4.165 -5.035,-6.266 -7.005,-8.848 -14,-17.704 -20.999,-26.558 -3.738,2.253 -6.441,5.547 -8.918,9.029 C 3.474,-9.006 1.411,-4.655 0,0"
               style="fill:#c9def0;fill-opacity:1;fill-rule:nonzero;stroke:none"
               id="path399"
               inkscape:connector-curvature="0" />
          </g>
          <g
             id="g401"
             transform="translate(33.5137,94.9785)">
            <path
               d="m 0,0 c 6.999,8.854 13.994,17.709 20.999,26.558 1.663,2.101 3.355,4.177 5.035,6.266 C 26.414,29.708 25.272,26.8 24.696,23.836 22.737,13.753 20.586,3.708 18.524,-6.355 18.357,-7.17 18.058,-7.902 17.583,-8.572 11.512,-7.417 6.093,-4.784 1.073,-1.256 0.619,-0.937 0.118,-0.622 0,0"
               style="fill:#1a2854;fill-opacity:1;fill-rule:nonzero;stroke:none"
               id="path403"
               inkscape:connector-curvature="0" />
          </g>
          <g
             id="g405"
             transform="translate(59.3857,128.2432)">
            <path
               d="M 0,0 C 0.209,0.167 0.418,0.334 0.626,0.501 0.504,0.226 0.377,-0.043 0,0"
               style="fill:#c9def0;fill-opacity:1;fill-rule:nonzero;stroke:none"
               id="path407"
               inkscape:connector-curvature="0" />
          </g>
        </g>
      </g>
      <text
         y="208.14761"
         x="-66.2939"
         style="font-variant:normal;font-weight:500;font-stretch:normal;font-size:22.08311272px;font-family:'Advent Pro';-inkscape-font-specification:AdventPro-Medium;writing-mode:lr-tb;fill:#ffffff;fill-opacity:1;fill-rule:nonzero;stroke:none;stroke-width:0.35277775"
         id="text411">
        <tspan
           style="stroke-width:0.35277775"
           x="-66.2939 -56.025253 -43.526207 -31.866327 -19.985605 -7.9061375"
           y="208.14761"
           sodipodi:role="line"
           id="tspan409">EUROPE</tspan>
      </text>
      <text
         y="226.92406"
         x="-44.651123"
         style="font-variant:normal;font-weight:300;font-stretch:normal;font-size:17.28244209px;font-family:'Advent Pro';-inkscape-font-specification:AdventPro-Light;writing-mode:lr-tb;fill:#ffffff;fill-opacity:1;fill-rule:nonzero;stroke:none;stroke-width:0.35277775"
         id="text415">
        <tspan
           style="stroke-width:0.35277775"
           x="-44.651123 -36.614784 -29.010515 -20.974176 -13.473604 -6.5260563"
           y="226.92406"
           sodipodi:role="line"
           id="tspan413">ELECTS</tspan>
      </text>
    </g>
  </g>
    <g
       transform="translate(250,-470)"
       id="g338">
      <rect
         height="20"
         width="65"
         x="-765.92792"
         y="887.99103"
         id="rect80-2"
         style="opacity:0.5;fill:#044e8a;stroke-width:5"
         transform="rotate(-90)" />
      <rect
         height="40"
         width="55"
         x="-765.92792"
         y="857.9906"
         id="rect86-9"
         style="fill:#0060ae"
         transform="rotate(-90)" />
      <text
         font-size="28px"
         font-style="normal"
         font-weight="bold"
         text-align="center"
         x="-555.87753"
         y="884.9906"
         id="text88-3"
         style="font-style:normal;font-weight:bold;font-size:28px;font-family:'Advent Pro';text-align:center;text-anchor:end;fill:#0060ae"
         transform="rotate(-90)">Polling result</text>
      <text
         font-size="28px"
         font-style="italic"
         font-weight="bold"
         text-align="center"
         x="-488.25253"
         y="907.58105"
         id="text92-0"
         style="font-style:italic;font-weight:bold;font-size:28px;font-family:'Advent Pro';text-align:center;text-anchor:end;opacity:0.5;fill:#0060ae"
         transform="rotate(-90)">Last election result</text>
    </g>

  <text style="font-style:normal;font-weight:bold;font-size:36px;font-family:'Advent Pro';text-align:center;text-anchor:middle;fill:#0060ae" id="party-name-1" y="870" x="150" text-align="center" font-weight="bold" font-style="normal" font-size="36px">Party Name 1</text>
  <text style="font-style:normal;font-weight:bold;font-size:36px;font-family:'Advent Pro';text-align:center;text-anchor:middle;fill:#0060ae" id="ep-group-name-1" y="920" x="150" text-align="center" font-weight="bold" font-style="normal" font-size="36px">EP Group Name 1</text>
  <rect id="party-bar-1" y="830" x="110" width="80" height="498" fill="#ff0000" />
  <rect id="party-bar-last-1" y="830" x="170" width="40" height="498" fill="#ff0000" style="opacity:0.5"/>
  <text style="font-style:normal;font-weight:bold;font-size:36px;font-family:'Advent Pro';text-align:center;text-anchor:middle;fill:#0060ae" id="percentage-1" y="800" x="150" text-align="center" font-weight="bold" font-style="normal" font-size="36px">Percentage 1</text>
  <text style="font-style:italic;font-weight:bold;font-size:28px;font-family:'Advent Pro';text-align:center;text-anchor:middle;fill:#0060ae;opacity:0.5" id="percentage-last-1" y="800" x="190" text-align="center" font-weight="bold" font-style="normal" font-size="36px">Last Percentage 4</text>

  <text style="font-style:normal;font-weight:bold;font-size:36px;font-family:'Advent Pro';text-align:center;text-anchor:middle;fill:#0060ae" id="party-name-2" y="870" x="300" text-align="center" font-weight="bold" font-style="normal" font-size="36px">Party Name 2</text>
  <text style="font-style:normal;font-weight:bold;font-size:36px;font-family:'Advent Pro';text-align:center;text-anchor:middle;fill:#0060ae" id="ep-group-name-2" y="920" x="300" text-align="center" font-weight="bold" font-style="normal" font-size="36px">EP Group Name 2</text>
  <rect id="party-bar-2" y="830" x="260" width="80" height="498" fill="#ff0000" />
  <rect id="party-bar-last-2" y="830" x="320" width="40" height="498" fill="#ff0000" style="opacity:0.5"/>
  <text style="font-style:normal;font-weight:bold;font-size:36px;font-family:'Advent Pro';text-align:center;text-anchor:middle;fill:#0060ae" id="percentage-2" y="800" x="300" text-align="center" font-weight="bold" font-style="normal" font-size="36px">Percentage 2</text>
  <text style="font-style:italic;font-weight:bold;font-size:28px;font-family:'Advent Pro';text-align:center;text-anchor:middle;fill:#0060ae;opacity:0.5" id="percentage-last-2" y="800" x="340" text-align="center" font-weight="bold" font-style="normal" font-size="36px">Last Percentage 4</text>

  <text style="font-style:normal;font-weight:bold;font-size:36px;font-family:'Advent Pro';text-align:center;text-anchor:middle;fill:#0060ae" id="party-name-3" y="870" x="450" text-align="center" font-weight="bold" font-style="normal" font-size="36px">Party Name 3</text>
  <text style="font-style:normal;font-weight:bold;font-size:36px;font-family:'Advent Pro';text-align:center;text-anchor:middle;fill:#0060ae" id="ep-group-name-3" y="920" x="450" text-align="center" font-weight="bold" font-style="normal" font-size="36px">EP Group Name 3</text>
  <rect id="party-bar-3" y="830" x="410" width="80" height="498" fill="#ff0000" />
  <rect id="party-bar-last-3" y="830" x="470" width="40" height="498" fill="#ff0000" style="opacity:0.5"/>
  <text style="font-style:normal;font-weight:bold;font-size:36px;font-family:'Advent Pro';text-align:center;text-anchor:middle;fill:#0060ae" id="percentage-3" y="800" x="450" text-align="center" font-weight="bold" font-style="normal" font-size="36px">Percentage 3</text>
  <text style="font-style:italic;font-weight:bold;font-size:28px;font-family:'Advent Pro';text-align:center;text-anchor:middle;fill:#0060ae;opacity:0.5" id="percentage-last-3" y="800" x="490" text-align="center" font-weight="bold" font-style="normal" font-size="36px">Last Percentage 4</text>

  <text style="font-style:normal;font-weight:bold;font-size:36px;font-family:'Advent Pro';text-align:center;text-anchor:middle;fill:#0060ae" id="party-name-4" y="870" x="600" text-align="center" font-weight="bold" font-style="normal" font-size="36px">Party Name 4</text>
  <text style="font-style:normal;font-weight:bold;font-size:36px;font-family:'Advent Pro';text-align:center;text-anchor:middle;fill:#0060ae" id="ep-group-name-4" y="920" x="600" text-align="center" font-weight="bold" font-style="normal" font-size="36px">EP Group Name 4</text>
  <rect id="party-bar-4" y="830" x="560" width="80" height="498" fill="#ff0000" />
  <rect id="party-bar-last-4" y="830" x="620" width="40" height="498" fill="#ff0000" style="opacity:0.5"/>
  <text style="font-style:normal;font-weight:bold;font-size:36px;font-family:'Advent Pro';text-align:center;text-anchor:middle;fill:#0060ae" id="percentage-4" y="800" x="600" text-align="center" font-weight="bold" font-style="normal" font-size="36px">Percentage 4</text>
  <text style="font-style:italic;font-weight:bold;font-size:28px;font-family:'Advent Pro';text-align:center;text-anchor:middle;fill:#0060ae;opacity:0.5" id="percentage-last-4" y="800" x="640" text-align="center" font-weight="bold" font-style="normal" font-size="36px">Last Percentage 4</text>

  <text style="font-style:normal;font-weight:bold;font-size:36px;font-family:'Advent Pro';text-align:center;text-anchor:middle;fill:#0060ae" id="party-name-5" y="870" x="750" text-align="center" font-weight="bold" font-style="normal" font-size="36px">Party Name 5</text>
  <text style="font-style:normal;font-weight:bold;font-size:36px;font-family:'Advent Pro';text-align:center;text-anchor:middle;fill:#0060ae" id="ep-group-name-5" y="920" x="750" text-align="center" font-weight="bold" font-style="normal" font-size="36px">EP Group Name 5</text>
  <rect id="party-bar-5" y="830" x="710" width="80" height="498" fill="#ff0000" />
  <rect id="party-bar-last-5" y="830" x="770" width="40" height="498" fill="#ff0000" style="opacity:0.5"/>
  <text style="font-style:normal;font-weight:bold;font-size:36px;font-family:'Advent Pro';text-align:center;text-anchor:middle;fill:#0060ae" id="percentage-5" y="800" x="750" text-align="center" font-weight="bold" font-style="normal" font-size="36px">Percentage 5</text>
  <text style="font-style:italic;font-weight:bold;font-size:28px;font-family:'Advent Pro';text-align:center;text-anchor:middle;fill:#0060ae;opacity:0.5" id="percentage-last-5" y="800" x="790" text-align="center" font-weight="bold" font-style="normal" font-size="36px">Last Percentage 5</text>

  <text style="font-style:normal;font-weight:bold;font-size:36px;font-family:'Advent Pro';text-align:center;text-anchor:middle;fill:#0060ae" id="party-name-6" y="870" x="900" text-align="center" font-weight="bold" font-style="normal" font-size="36px">Party Name 6</text>
  <text style="font-style:normal;font-weight:bold;font-size:36px;font-family:'Advent Pro';text-align:center;text-anchor:middle;fill:#0060ae" id="ep-group-name-6" y="920" x="900" text-align="center" font-weight="bold" font-style="normal" font-size="36px">EP Group Name 6</text>
  <rect id="party-bar-6" y="830" x="860" width="80" height="498" fill="#ff0000" />
  <rect id="party-bar-last-6" y="830" x="920" width="40" height="498" fill="#ff0000" style="opacity:0.5"/>
  <text style="font-style:normal;font-weight:bold;font-size:36px;font-family:'Advent Pro';text-align:center;text-anchor:middle;fill:#0060ae" id="percentage-6" y="800" x="900" text-align="center" font-weight="bold" font-style="normal" font-size="36px">Percentage 6</text>
  <text style="font-style:italic;font-weight:bold;font-size:28px;font-family:'Advent Pro';text-align:center;text-anchor:middle;fill:#0060ae;opacity:0.5" id="percentage-last-6" y="800" x="940" text-align="center" font-weight="bold" font-style="normal" font-size="36px">Last Percentage 6</text>

  <text style="font-style:normal;font-weight:bold;font-size:36px;font-family:'Advent Pro';text-align:center;text-anchor:middle;fill:#0060ae" id="party-name-7" y="870" x="1050" text-align="center" font-weight="bold" font-style="normal" font-size="36px">Party Name 7</text>
  <text style="font-style:normal;font-weight:bold;font-size:36px;font-family:'Advent Pro';text-align:center;text-anchor:middle;fill:#0060ae" id="ep-group-name-7" y="920" x="1050" text-align="center" font-weight="bold" font-style="normal" font-size="36px">EP Group Name 7</text>
  <rect id="party-bar-7" y="830" x="1010" width="80" height="498" fill="#ff0000" />
  <rect id="party-bar-last-7" y="830" x="1070" width="40" height="498" fill="#ff0000" style="opacity:0.5"/>
  <text style="font-style:normal;font-weight:bold;font-size:36px;font-family:'Advent Pro';text-align:center;text-anchor:middle;fill:#0060ae" id="percentage-7" y="800" x="1050" text-align="center" font-weight="bold" font-style="normal" font-size="36px">Percentage 7</text>
  <text style="font-style:italic;font-weight:bold;font-size:28px;font-family:'Advent Pro';text-align:center;text-anchor:middle;fill:#0060ae;opacity:0.5" id="percentage-last-7" y="800" x="1090" text-align="center" font-weight="bold" font-style="normal" font-size="36px">Last Percentage 7</text>

</svg>
